<?xml version="1.0" encoding="UTF-8"?>
<svg xmlns="http://www.w3.org/2000/svg" width="87" height="48" viewBox="0 0 87 48" role="img" aria-labelledby="title desc">
	<title id="title">Wyst accent wordmark</title>
	<desc id="desc">The Wyst wordmark with a periwinkle wy ligature and an Ink st.</desc>
	<g fill="none" stroke="#93A4FF" stroke-width="6" stroke-linejoin="round">
		<path d="M7 9 15 30 23 9 31 30 39 9" stroke-linecap="square" />
		<path d="M31 30C31 36 31 39.5 28 42" stroke-linecap="round" />
	</g>
	<g fill="#F4F6FA">
		<path transform="translate(42.08 33) scale(.2126)" d="M56.105-124.332C61.953-124.332 67.176-123.785 71.77-122.695 76.359-121.602 81.223-119.859 86.355-117.465L89.547-84.395H84.484L68.57-117.547 78.488-106.449C74.504-110.102 70.746-112.723 67.215-114.313 63.684-115.898 59.688-116.691 55.227-116.691 48.273-116.691 42.883-115.219 39.059-112.273 35.23-109.328 33.32-105.09 33.32-99.559 33.32-96 34.172-92.879 35.875-90.203 37.578-87.523 40.488-84.992 44.602-82.602 48.715-80.211 54.406-77.645 61.684-74.902 67.117-72.891 71.836-70.625 75.84-68.113 79.84-65.598 83.141-62.785 85.742-59.672 88.344-56.563 90.285-53.07 91.566-49.203 92.852-45.336 93.492-41.004 93.492-36.203 93.492-28.215 91.379-21.297 87.152-15.449 82.93-9.605 77.246-5.102 70.105-1.934 62.961 1.234 54.926 2.816 45.988 2.816 39.676 2.816 34.023 2.281 29.035 1.207 24.047.137 19.348-1.465 14.938-3.594L8.668-40.012H14.121L34.293-2.648 23.258-11.023C25.938-9.484 28.488-8.258 30.91-7.336 33.332-6.418 35.734-5.758 38.113-5.352 40.496-4.945 42.883-4.742 45.273-4.742 52.801-4.742 59.133-6.543 64.27-10.148 69.406-13.754 71.973-19.195 71.973-26.469 71.973-29.656 71.355-32.469 70.121-34.91 68.891-37.352 67.023-39.586 64.52-41.617 62.02-43.645 58.887-45.586 55.121-47.441 51.355-49.297 46.93-51.172 41.84-53.066 35.086-55.652 29.547-58.617 25.223-61.957 20.902-65.301 17.711-69.215 15.656-73.703 13.598-78.191 12.566-83.375 12.566-89.258 12.566-96.676 14.523-102.988 18.441-108.199 22.355-113.41 27.609-117.402 34.203-120.172 40.797-122.945 48.094-124.332 56.105-124.332Z" />
		<path transform="translate(63.96 33) scale(.2126)" d="M48.012-33.73C48.012-27.949 49.836-23.586 53.484-20.648 57.129-17.707 62.207-16.238 68.715-16.238 72.18-16.238 75.871-16.563 79.793-17.207 83.711-17.852 88.16-18.898 93.137-20.348V-15.098C86.227-10.5 80.375-6.91 75.578-4.332 70.785-1.75 66.539.066 62.84 1.113 59.141 2.164 55.43 2.691 51.707 2.691 45.813 2.691 40.535 1.543 35.879-.754 31.223-3.047 27.535-6.605 24.82-11.422 22.109-16.238 20.75-22.398 20.75-29.91V-102.543L4.555-113.781V-116.438C5.965-117.406 7.75-118.586 9.906-119.973 12.066-121.359 14.48-122.922 17.156-124.66 19.828-126.395 22.68-128.254 25.711-130.238 28.742-132.219 31.871-134.262 35.102-136.359 38.332-138.457 41.543-140.555 44.734-142.648H48.012V-33.73ZM37.793-106.902V-121.516H89.211L86.996-106.902H37.793Z" />
	</g>
</svg>
